<?xml version="1.0" encoding="utf-8"?>
<!-- Generator: Adobe Illustrator 21.0.2, SVG Export Plug-In . SVG Version: 6.00 Build 0)  -->
<svg version="1.1" id="Layer_1" xmlns="http://www.w3.org/2000/svg" xmlns:xlink="http://www.w3.org/1999/xlink" x="0px" y="0px"
	 viewBox="0 0 500 500" style="enable-background:new 0 0 500 500;" xml:space="preserve">
<style type="text/css">
	.st0{fill:#FFFFFF;}
</style>
<path id="path-1" class="st0" d="M250,500C112.2,500,0,387.8,0,250S112.2,0,250,0c137.8,0,250,112.2,250,250S387.8,500,250,500z
	 M250,62.5C146.6,62.5,62.5,146.6,62.5,250S146.6,437.5,250,437.5S437.5,353.4,437.5,250S353.4,62.5,250,62.5z M334.6,334.6
	c-6.1,6.1-14.1,9.2-22.1,9.2s-16-3.1-22.1-9.2L250,294.2l-40.4,40.4c-6.1,6.1-14.1,9.2-22.1,9.2s-16-3.1-22.1-9.2
	c-12.2-12.2-12.2-32,0-44.2l40.4-40.4l-40.4-40.4c-12.2-12.2-12.2-32,0-44.2c12.2-12.2,32-12.2,44.2,0l40.4,40.4l40.4-40.4
	c12.2-12.2,32-12.2,44.2,0c12.2,12.2,12.2,32,0,44.2L294.2,250l40.4,40.4C346.8,302.6,346.8,322.4,334.6,334.6z"/>
</svg>
